<svg width="41" height="46" viewBox="0 0 41 46" fill="none" xmlns="http://www.w3.org/2000/svg">
<path d="M6.97629 34.6488C5.49423 34.6488 3.90695 34.8951 3.28906 36.3175C2.60382 37.8949 0.947286 39.9522 1.00129 41.1743C1.16242 44.8205 6.00886 43.5076 9.41471 43.5076C18.1034 43.5076 26.9789 43.4324 35.645 43.9742C39.1648 44.1943 41.4846 43.0492 38.894 38.9203C37.6638 36.9598 35.3332 35.1927 33.1704 34.1743C31.8127 33.535 30.5336 34.8603 29.056 34.8603C25.0999 34.8603 21.1438 34.6693 17.1895 34.6488C13.7805 34.6312 10.3804 34.6488 6.97629 34.6488Z" stroke="#4A4FD9" stroke-linecap="round" stroke-linejoin="round"/>
<path d="M15.6607 30.421C14.1553 29.5244 13.2687 28.4596 12.1399 26.8639C10.6757 24.794 10.076 22.6559 9.6027 20.8878C8.40085 16.3977 8.52631 9.1807 13.0013 7C16.7668 5.16506 24.663 7.90695 28.4406 8.79236C31.1261 9.42176 32.4801 12.6437 33.0013 15.9003C33.4248 18.5463 32.6534 20.1122 31.8236 22.6601C31.4054 23.944 30.9337 24.7788 30.5205 25.8627C30.2585 26.55 30.0799 27.3337 29.6435 27.9336C28.683 29.2537 27.6762 29.777 26.0726 30.0044C24.1525 30.2767 22.2365 30.58 20.3091 30.8439C18.8769 31.04 16.9411 31.1837 15.6607 30.421Z" stroke="#4A4FD9" stroke-linecap="round" stroke-linejoin="round"/>
<path d="M17.4074 17.0033C16.1054 17.0033 14.1263 17.2806 13.3542 18.3436C12.93 18.9276 12.9026 19.6568 13.1951 20.2906C13.9432 21.9117 16.0513 20.3265 17.0002 19.75C17.972 19.1597 18.0656 18.5713 17.9738 17.6155C17.9108 16.9608 17.0761 17.0033 16.523 17.0033C15.3641 17.0033 12.4114 16.6366 13.3542 18.271" stroke="#4A4FD9" stroke-linecap="round" stroke-linejoin="round"/>
<path d="M24.4205 20.663C23.8958 19.7434 23.9247 18.8535 24.1749 17.8696C23.9113 17.7459 25.6532 17.1066 25.7714 17.094C26.376 17.0291 27.1318 16.885 27.6973 17.1726C28.6818 17.6733 29.3075 18.6956 28.8472 19.704C28.651 20.1337 28.3895 20.4307 27.8759 20.5111C27.1812 20.6198 26.5272 20.8644 25.8273 20.9618C25.4211 21.0183 24.653 21.0704 24.4205 20.663Z" stroke="#4A4FD9" stroke-linecap="round" stroke-linejoin="round"/>
<path d="M24.0013 13.6726C25.3153 12.8598 26.6443 12.8419 28.0243 13.3087C28.261 13.3888 29.4548 13.6663 28.8149 14" stroke="#4A4FD9" stroke-linecap="round" stroke-linejoin="round"/>
<path d="M13.0013 14C14.3129 14 15.3296 14 16.6576 14C17.406 14 17.6331 14 18.0013 14" stroke="#4A4FD9" stroke-linecap="round" stroke-linejoin="round"/>
<path d="M19.0013 23C19.5315 22.1507 20.1153 20.3964 21.085 21.21C21.4969 21.5556 22.1307 22.1238 21.9781 22.7003" stroke="#4A4FD9" stroke-linecap="round" stroke-linejoin="round"/>
<path d="M7.76579 17.1956C6.68364 16.642 6.08047 17.3074 5.41731 18.6382C4.30801 20.8642 5.62879 23.2517 6.90501 25.0273" stroke="#4A4FD9" stroke-linecap="round" stroke-linejoin="round"/>
<path d="M33.3311 18C33.3311 18 35.4231 18.1202 36.0013 19C37.4977 21.2767 35.1213 24.5136 33.3311 26.3635C32.3347 27.3932 31.6591 26.7354 30.0713 26.9591C28.7012 27.1522 27.7432 26.6451 27.0014 25.7828" stroke="#4A4FD9" stroke-linecap="round" stroke-linejoin="round"/>
<path d="M5.12308 43.8302L4.62845 43.9034C4.64168 43.9928 4.67892 44.077 4.73621 44.147L5.12308 43.8302ZM5.12308 43.8302C4.73621 44.147 4.73627 44.147 4.73633 44.1471L4.73646 44.1473L4.73676 44.1476L4.73751 44.1486L4.73959 44.1511L4.74602 44.1588L4.76763 44.1842C4.78575 44.2052 4.81128 44.2342 4.84291 44.2685C4.90557 44.3366 4.99507 44.4289 5.10059 44.5228C5.20432 44.6151 5.33439 44.7187 5.47834 44.8017C5.61461 44.8803 5.81053 44.9683 6.03484 44.9683C6.63755 44.9683 7.24427 45.0194 7.87721 45.0729L7.8831 45.0733C8.50713 45.1261 9.15668 45.181 9.81212 45.181C12.1206 45.181 14.4269 45.2604 16.7424 45.3402L16.7494 45.3404C19.0597 45.4201 21.3791 45.5 23.7017 45.5C25.3814 45.5 27.062 45.4734 28.7388 45.4468L28.7429 45.4468C30.4223 45.4202 32.0978 45.3937 33.7724 45.3937C33.7933 45.3937 33.8243 45.3942 33.8632 45.395C34.024 45.3979 34.3196 45.4034 34.588 45.3813C34.7554 45.3675 34.951 45.3408 35.124 45.2815C35.2646 45.2334 35.5668 45.1044 35.6622 44.7713C35.6764 44.7217 35.6941 44.6677 35.7158 44.6023C35.7365 44.5398 35.7612 44.4663 35.7841 44.3912C35.8295 44.242 35.8775 44.0567 35.8881 43.8566C36.0272 41.2176 36.3398 38.5351 36.657 35.8128C36.6794 35.6201 36.7019 35.4272 36.7244 35.234C37.0631 32.3195 37.393 29.3629 37.4988 26.4055C37.5134 25.9985 37.3892 25.6215 37.0431 25.3963C36.7476 25.204 36.3901 25.1958 36.1236 25.2138C35.8708 25.2309 35.5948 25.2818 35.3546 25.3261C35.3279 25.331 35.3016 25.3358 35.2759 25.3406C34.998 25.3913 34.7761 25.4272 34.6013 25.4272C32.092 25.4272 29.5854 25.4539 27.0822 25.4804L27.0819 25.4804C24.5777 25.507 22.077 25.5336 19.5751 25.5336C15.3932 25.5336 11.1682 25.1334 6.95818 24.7346C6.36153 24.6781 5.76518 24.6216 5.1693 24.5663C5.1497 24.5645 5.12599 24.5622 5.09864 24.5595C4.86508 24.5367 4.36645 24.488 3.9046 24.5028C3.6518 24.5109 3.3638 24.5387 3.12233 24.6229C2.90204 24.6998 2.52102 24.903 2.50389 25.3647C2.49395 25.6324 2.50428 26.3776 2.52281 27.0986C2.54123 27.8151 2.56905 28.5635 2.59856 28.8285C2.75418 30.2261 2.98741 31.1981 3.21018 32.1265C3.22627 32.1935 3.2423 32.2603 3.25825 32.327C3.49302 33.3095 3.7118 34.2847 3.82529 35.757C3.86844 36.3168 3.90347 36.8898 3.9388 37.4676C3.9943 38.3753 4.05051 39.2947 4.14006 40.1932C4.20273 40.822 4.32532 41.7522 4.43125 42.5191C4.4844 42.9038 4.53368 43.2497 4.56966 43.4994C4.58766 43.6243 4.60234 43.7252 4.61253 43.7949L4.6243 43.8752L4.62738 43.8961L4.62818 43.9015L4.62838 43.9029L4.62843 43.9032L4.62845 43.9033L5.12308 43.8302Z" fill="white" stroke="#4A4FD9" stroke-linecap="round" stroke-linejoin="round"/>
<path d="M8.21341 18.3297C8.39928 18.4606 8.65006 18.4496 8.82379 18.303C10.5383 16.856 11.5905 14.6221 11.9502 12.5386C12.0563 11.9239 12.1369 11.3874 12.2048 10.9227C12.2185 10.8288 12.2316 10.7381 12.2443 10.6506C12.2948 10.3022 12.3382 10.003 12.382 9.74122C12.437 9.41278 12.4891 9.16665 12.5484 8.97881C12.6077 8.79072 12.6651 8.69216 12.7127 8.63732C12.7752 8.56548 12.8945 8.47856 13.3888 8.50504C13.8165 8.52795 14.3949 8.62589 15.2326 8.76775C15.3699 8.79101 15.5141 8.81544 15.6658 8.84091C15.9506 8.88873 16.2435 8.9386 16.5432 8.98963C18.2719 9.28398 20.2295 9.6173 22.189 9.82205C24.4854 10.062 26.8259 10.1306 28.8483 9.74049C29.293 9.65469 29.6982 9.82359 30.1099 10.2823C30.5324 10.7531 30.9044 11.4745 31.2271 12.3262C31.7228 13.6341 32.0582 15.1186 32.3089 16.2283C32.385 16.5654 32.4534 16.8679 32.516 17.1204C32.5288 17.172 32.5388 17.2201 32.5509 17.2785C32.5604 17.3243 32.5713 17.3764 32.5857 17.4414C32.6136 17.5665 32.6521 17.7216 32.7104 17.8653C32.7639 17.9971 32.8634 18.1957 33.0575 18.3274C33.2956 18.4889 33.5704 18.4839 33.8087 18.3773C34.1359 18.2308 34.3764 17.9632 34.5549 17.6712C34.7349 17.377 34.8738 17.0226 34.9839 16.6449C35.2041 15.8895 35.3307 14.9631 35.4045 14.0501C35.5277 12.5266 35.5085 10.9613 35.4987 10.1615C35.4968 10.0018 35.4952 9.87259 35.4952 9.78035C35.4952 8.60521 34.9651 7.72202 34.2838 6.92334C33.1998 5.65259 32.0063 4.59383 30.6656 3.63124C30.4413 3.47021 30.2124 3.29701 29.9775 3.11926C29.11 2.4628 28.1605 1.74433 27.0583 1.34776C25.5887 0.818965 24.2638 0.518486 22.6716 0.506052C21.5106 0.496984 20.3527 0.500001 19.1943 0.503019C18.6152 0.504528 18.036 0.506037 17.4562 0.506037C16.1859 0.506037 15.0798 0.66986 13.8707 1.12667C13.5194 1.25938 13.1644 1.37736 12.802 1.49591C12.7576 1.51043 12.7131 1.52498 12.6684 1.53956C12.3514 1.64306 12.0279 1.74864 11.7082 1.8632C10.9761 2.12548 10.2347 2.44441 9.53241 2.93751C9.47979 2.97446 9.42703 3.01134 9.37423 3.04826C8.39489 3.73289 7.39946 4.42878 6.92836 5.7999C6.5307 6.95729 6.50131 8.2372 6.50131 9.35826C6.50131 10.3501 6.53007 11.3355 6.55857 12.3123L6.55866 12.3153C6.58726 13.2954 6.61557 14.2669 6.61557 15.2419C6.61557 15.9978 6.63311 16.5685 6.88442 17.0566C7.13627 17.5459 7.59117 17.8915 8.21341 18.3297Z" fill="white" stroke="#4A4FD9" stroke-linecap="round" stroke-linejoin="round"/>
<path d="M21.8177 36.4321C21.892 37.1957 22.9977 37.9709 23.0013 38C23.3732 41.0018 18.0012 39.166 18.0012 37C18.0013 33.5 21.0998 33.0953 23.0013 34.5C22.6376 34.9394 21.732 35.5514 21.8177 36.4321Z" stroke="#4A4FD9" stroke-linecap="round" stroke-linejoin="round"/>
<path d="M21.1602 32C20.9604 31.8333 20.956 31.6322 21.108 31.4222C21.2778 31.1875 22.0013 31 22.0013 31" stroke="#4A4FD9" stroke-linecap="round" stroke-linejoin="round"/>
<path d="M19.1964 22.8268C19.0812 22.7666 18.9038 22.8069 18.7878 22.8504C18.6879 22.8879 18.5621 22.9604 18.4944 23.045C18.4364 23.1175 18.4329 23.2495 18.4517 23.3373C18.478 23.4601 18.5526 23.5061 18.6498 23.5657C18.7475 23.6257 18.9315 23.5976 19.0379 23.591C19.1556 23.5836 19.283 23.5683 19.3353 23.4453C19.3654 23.3746 19.3637 23.2815 19.3302 23.2122C19.3221 23.1956 19.2414 23.0979 19.2241 23.1324" stroke="#4A4FD9" stroke-linecap="round" stroke-linejoin="round"/>
<path d="M22.1328 22.9194C22.0333 22.8855 21.9139 22.8987 21.8112 22.9101C21.7447 22.9175 21.7098 22.9599 21.6768 23.0141C21.6172 23.1121 21.6298 23.2242 21.6331 23.3352C21.6366 23.4511 21.6676 23.6697 21.8245 23.6697C22.0203 23.6697 22.2027 23.6603 22.3633 23.539C22.4404 23.4808 22.491 23.3874 22.5162 23.2951C22.5311 23.2404 22.5244 23.1751 22.4735 23.1417C22.4441 23.1225 22.3959 23.1021 22.3644 23.1232" stroke="#4A4FD9" stroke-linecap="round" stroke-linejoin="round"/>
</svg>
